<?xml version="1.0" encoding="UTF-8" standalone="no"?>
<!-- Created with Inkscape (http://www.inkscape.org/) -->

<svg
   xmlns:dc="http://purl.org/dc/elements/1.1/"
   xmlns:cc="http://creativecommons.org/ns#"
   xmlns:rdf="http://www.w3.org/1999/02/22-rdf-syntax-ns#"
   xmlns:svg="http://www.w3.org/2000/svg"
   xmlns="http://www.w3.org/2000/svg"
   xmlns:sodipodi="http://sodipodi.sourceforge.net/DTD/sodipodi-0.dtd"
   xmlns:inkscape="http://www.inkscape.org/namespaces/inkscape"
   id="svg2"
   version="1.1"
   inkscape:version="0.92.4 5da689c313, 2019-01-14"
   xml:space="preserve"
   width="125mm"
   height="168mm"
   viewBox="0 0 442.9134 595.27556"
   sodipodi:docname="deckseite-vektor-mit-schnittmarken.svg"><metadata
     id="metadata8"><rdf:RDF><cc:Work
         rdf:about=""><dc:format>image/svg+xml</dc:format><dc:type
           rdf:resource="http://purl.org/dc/dcmitype/StillImage" /><dc:title /></cc:Work></rdf:RDF></metadata><defs
     id="defs6"><clipPath
       clipPathUnits="userSpaceOnUse"
       id="clipPath22"><path
         d="m 14.04,681.72 141.84,0 0,141.84 -141.84,0 0,-141.84 z"
         id="path24"
         inkscape:connector-curvature="0" /></clipPath><clipPath
       clipPathUnits="userSpaceOnUse"
       id="clipPath30"><path
         d="m 14.050048,823.47525 0,-141.73227 141.732272,0 0,141.73227"
         id="path32"
         inkscape:connector-curvature="0" /></clipPath><clipPath
       clipPathUnits="userSpaceOnUse"
       id="clipPath48"><path
         d="m 257.63999,699.24 312.12,0 0,116.04 -312.12,0 0,-116.04 z"
         id="path50"
         inkscape:connector-curvature="0" /></clipPath><clipPath
       clipPathUnits="userSpaceOnUse"
       id="clipPath56"><path
         d="m 257.70361,815.27392 0,-115.99999 312,0 0,115.99999"
         id="path58"
         inkscape:connector-curvature="0" /></clipPath><clipPath
       clipPathUnits="userSpaceOnUse"
       id="clipPath68"><path
         d="m 9.6,158.28001 573.95999,0 0,397.92 -573.95999,0 0,-397.92 z"
         id="path70"
         inkscape:connector-curvature="0" /></clipPath><clipPath
       clipPathUnits="userSpaceOnUse"
       id="clipPath76"><path
         d="m 9.713792,556.09535 0,-397.75024 573.734008,0 0,397.75024"
         id="path78"
         inkscape:connector-curvature="0" /></clipPath><clipPath
       id="clipPath4253"
       clipPathUnits="userSpaceOnUse"><path
         inkscape:connector-curvature="0"
         id="path4255"
         d="m 71.999998,71.880016 468.119992,0 0,648.119984 -468.119992,0 0,-648.119984 z" /></clipPath><clipPath
       id="clipPath4263"
       clipPathUnits="userSpaceOnUse"><path
         inkscape:connector-curvature="0"
         id="path4265"
         d="m 71.999998,71.880016 468.119992,0 0,648.119984 -468.119992,0 0,-648.119984 z" /></clipPath><clipPath
       id="clipPath4273"
       clipPathUnits="userSpaceOnUse"><path
         inkscape:connector-curvature="0"
         id="path4275"
         d="m 71.999998,71.880016 468.119992,0 0,648.119984 -468.119992,0 0,-648.119984 z" /></clipPath><clipPath
       id="clipPath4283"
       clipPathUnits="userSpaceOnUse"><path
         inkscape:connector-curvature="0"
         id="path4285"
         d="m 71.999998,71.880016 468.119992,0 0,648.119984 -468.119992,0 0,-648.119984 z" /></clipPath><clipPath
       id="clipPath4293"
       clipPathUnits="userSpaceOnUse"><path
         inkscape:connector-curvature="0"
         id="path4295"
         d="m 71.999998,71.880016 468.119992,0 0,648.119984 -468.119992,0 0,-648.119984 z" /></clipPath><clipPath
       id="clipPath4303"
       clipPathUnits="userSpaceOnUse"><path
         inkscape:connector-curvature="0"
         id="path4305"
         d="m 71.999998,71.880016 468.119992,0 0,648.119984 -468.119992,0 0,-648.119984 z" /></clipPath><clipPath
       id="clipPath4313"
       clipPathUnits="userSpaceOnUse"><path
         inkscape:connector-curvature="0"
         id="path4315"
         d="m 71.999998,71.880016 468.119992,0 0,648.119984 -468.119992,0 0,-648.119984 z" /></clipPath><clipPath
       id="clipPath4323"
       clipPathUnits="userSpaceOnUse"><path
         inkscape:connector-curvature="0"
         id="path4325"
         d="m 71.999998,71.880016 468.119992,0 0,648.119984 -468.119992,0 0,-648.119984 z" /></clipPath><clipPath
       id="clipPath4333"
       clipPathUnits="userSpaceOnUse"><path
         inkscape:connector-curvature="0"
         id="path4335"
         d="m 71.999998,71.880016 468.119992,0 0,648.119984 -468.119992,0 0,-648.119984 z" /></clipPath><clipPath
       id="clipPath4343"
       clipPathUnits="userSpaceOnUse"><path
         inkscape:connector-curvature="0"
         id="path4345"
         d="m 71.999998,71.880016 468.119992,0 0,648.119984 -468.119992,0 0,-648.119984 z" /></clipPath><clipPath
       id="clipPath4353"
       clipPathUnits="userSpaceOnUse"><path
         inkscape:connector-curvature="0"
         id="path4355"
         d="m 71.999998,71.880016 468.119992,0 0,648.119984 -468.119992,0 0,-648.119984 z" /></clipPath><clipPath
       id="clipPath4363"
       clipPathUnits="userSpaceOnUse"><path
         inkscape:connector-curvature="0"
         id="path4365"
         d="m 71.999998,71.880016 468.119992,0 0,648.119984 -468.119992,0 0,-648.119984 z" /></clipPath><clipPath
       id="clipPath4373"
       clipPathUnits="userSpaceOnUse"><path
         inkscape:connector-curvature="0"
         id="path4375"
         d="m 71.999998,71.880016 468.119992,0 0,648.119984 -468.119992,0 0,-648.119984 z" /></clipPath><clipPath
       id="clipPath4383"
       clipPathUnits="userSpaceOnUse"><path
         inkscape:connector-curvature="0"
         id="path4385"
         d="m 71.999998,71.880016 468.119992,0 0,648.119984 -468.119992,0 0,-648.119984 z" /></clipPath><clipPath
       id="clipPath4393"
       clipPathUnits="userSpaceOnUse"><path
         inkscape:connector-curvature="0"
         id="path4395"
         d="m 71.999998,71.880016 468.119992,0 0,648.119984 -468.119992,0 0,-648.119984 z" /></clipPath><clipPath
       id="clipPath4403"
       clipPathUnits="userSpaceOnUse"><path
         inkscape:connector-curvature="0"
         id="path4405"
         d="m 71.999998,71.880016 468.119992,0 0,648.119984 -468.119992,0 0,-648.119984 z" /></clipPath><clipPath
       id="clipPath4413"
       clipPathUnits="userSpaceOnUse"><path
         inkscape:connector-curvature="0"
         id="path4415"
         d="m 71.999998,71.880016 468.119992,0 0,648.119984 -468.119992,0 0,-648.119984 z" /></clipPath><clipPath
       id="clipPath4423"
       clipPathUnits="userSpaceOnUse"><path
         inkscape:connector-curvature="0"
         id="path4425"
         d="m 71.999998,71.880016 468.119992,0 0,648.119984 -468.119992,0 0,-648.119984 z" /></clipPath><clipPath
       id="clipPath4433"
       clipPathUnits="userSpaceOnUse"><path
         inkscape:connector-curvature="0"
         id="path4435"
         d="m 71.999998,71.880016 468.119992,0 0,648.119984 -468.119992,0 0,-648.119984 z" /></clipPath><clipPath
       id="clipPath4443"
       clipPathUnits="userSpaceOnUse"><path
         inkscape:connector-curvature="0"
         id="path4445"
         d="m 71.999998,71.880016 468.119992,0 0,648.119984 -468.119992,0 0,-648.119984 z" /></clipPath><clipPath
       id="clipPath4453"
       clipPathUnits="userSpaceOnUse"><path
         inkscape:connector-curvature="0"
         id="path4455"
         d="m 71.999998,71.880016 468.119992,0 0,648.119984 -468.119992,0 0,-648.119984 z" /></clipPath><clipPath
       id="clipPath4463"
       clipPathUnits="userSpaceOnUse"><path
         inkscape:connector-curvature="0"
         id="path4465"
         d="m 71.999998,71.880016 468.119992,0 0,648.119984 -468.119992,0 0,-648.119984 z" /></clipPath><clipPath
       id="clipPath4473"
       clipPathUnits="userSpaceOnUse"><path
         inkscape:connector-curvature="0"
         id="path4475"
         d="m 71.999998,71.880016 468.119992,0 0,648.119984 -468.119992,0 0,-648.119984 z" /></clipPath><clipPath
       id="clipPath4483"
       clipPathUnits="userSpaceOnUse"><path
         inkscape:connector-curvature="0"
         id="path4485"
         d="m 71.999998,71.880016 468.119992,0 0,648.119984 -468.119992,0 0,-648.119984 z" /></clipPath><clipPath
       id="clipPath4493"
       clipPathUnits="userSpaceOnUse"><path
         inkscape:connector-curvature="0"
         id="path4495"
         d="m 71.999998,71.880016 468.119992,0 0,648.119984 -468.119992,0 0,-648.119984 z" /></clipPath><clipPath
       id="clipPath4503"
       clipPathUnits="userSpaceOnUse"><path
         inkscape:connector-curvature="0"
         id="path4505"
         d="m 71.999998,71.880016 468.119992,0 0,648.119984 -468.119992,0 0,-648.119984 z" /></clipPath><clipPath
       id="clipPath4513"
       clipPathUnits="userSpaceOnUse"><path
         inkscape:connector-curvature="0"
         id="path4515"
         d="m 71.999998,71.880016 468.119992,0 0,648.119984 -468.119992,0 0,-648.119984 z" /></clipPath><clipPath
       id="clipPath4523"
       clipPathUnits="userSpaceOnUse"><path
         inkscape:connector-curvature="0"
         id="path4525"
         d="m 71.999998,71.880016 468.119992,0 0,648.119984 -468.119992,0 0,-648.119984 z" /></clipPath><clipPath
       id="clipPath4533"
       clipPathUnits="userSpaceOnUse"><path
         inkscape:connector-curvature="0"
         id="path4535"
         d="m 71.999998,71.880016 468.119992,0 0,648.119984 -468.119992,0 0,-648.119984 z" /></clipPath><clipPath
       id="clipPath4543"
       clipPathUnits="userSpaceOnUse"><path
         inkscape:connector-curvature="0"
         id="path4545"
         d="m 71.999998,71.880016 468.119992,0 0,648.119984 -468.119992,0 0,-648.119984 z" /></clipPath><clipPath
       id="clipPath4553"
       clipPathUnits="userSpaceOnUse"><path
         inkscape:connector-curvature="0"
         id="path4555"
         d="m 71.999998,71.880016 468.119992,0 0,648.119984 -468.119992,0 0,-648.119984 z" /></clipPath><clipPath
       id="clipPath4563"
       clipPathUnits="userSpaceOnUse"><path
         inkscape:connector-curvature="0"
         id="path4565"
         d="m 71.999998,71.880016 468.119992,0 0,648.119984 -468.119992,0 0,-648.119984 z" /></clipPath><clipPath
       id="clipPath4573"
       clipPathUnits="userSpaceOnUse"><path
         inkscape:connector-curvature="0"
         id="path4575"
         d="m 71.999998,71.880016 468.119992,0 0,648.119984 -468.119992,0 0,-648.119984 z" /></clipPath><clipPath
       id="clipPath4583"
       clipPathUnits="userSpaceOnUse"><path
         inkscape:connector-curvature="0"
         id="path4585"
         d="m 71.999998,71.880016 468.119992,0 0,648.119984 -468.119992,0 0,-648.119984 z" /></clipPath><clipPath
       id="clipPath4593"
       clipPathUnits="userSpaceOnUse"><path
         inkscape:connector-curvature="0"
         id="path4595"
         d="m 71.999998,71.880016 468.119992,0 0,648.119984 -468.119992,0 0,-648.119984 z" /></clipPath><clipPath
       id="clipPath4603"
       clipPathUnits="userSpaceOnUse"><path
         inkscape:connector-curvature="0"
         id="path4605"
         d="m 71.999998,71.880016 468.119992,0 0,648.119984 -468.119992,0 0,-648.119984 z" /></clipPath><clipPath
       id="clipPath4613"
       clipPathUnits="userSpaceOnUse"><path
         inkscape:connector-curvature="0"
         id="path4615"
         d="m 71.999998,71.880016 468.119992,0 0,648.119984 -468.119992,0 0,-648.119984 z" /></clipPath><clipPath
       id="clipPath4623"
       clipPathUnits="userSpaceOnUse"><path
         inkscape:connector-curvature="0"
         id="path4625"
         d="m 71.999998,71.880016 468.119992,0 0,648.119984 -468.119992,0 0,-648.119984 z" /></clipPath><clipPath
       id="clipPath4633"
       clipPathUnits="userSpaceOnUse"><path
         inkscape:connector-curvature="0"
         id="path4635"
         d="m 71.999998,71.880016 468.119992,0 0,648.119984 -468.119992,0 0,-648.119984 z" /></clipPath><clipPath
       id="clipPath4643"
       clipPathUnits="userSpaceOnUse"><path
         inkscape:connector-curvature="0"
         id="path4645"
         d="m 71.999998,71.880016 468.119992,0 0,648.119984 -468.119992,0 0,-648.119984 z" /></clipPath><clipPath
       id="clipPath4653"
       clipPathUnits="userSpaceOnUse"><path
         inkscape:connector-curvature="0"
         id="path4655"
         d="m 71.999998,71.880016 468.119992,0 0,648.119984 -468.119992,0 0,-648.119984 z" /></clipPath><clipPath
       id="clipPath4663"
       clipPathUnits="userSpaceOnUse"><path
         inkscape:connector-curvature="0"
         id="path4665"
         d="m 71.999998,71.880016 468.119992,0 0,648.119984 -468.119992,0 0,-648.119984 z" /></clipPath><clipPath
       id="clipPath4673"
       clipPathUnits="userSpaceOnUse"><path
         inkscape:connector-curvature="0"
         id="path4675"
         d="m 71.999998,71.880016 468.119992,0 0,648.119984 -468.119992,0 0,-648.119984 z" /></clipPath><clipPath
       id="clipPath4683"
       clipPathUnits="userSpaceOnUse"><path
         inkscape:connector-curvature="0"
         id="path4685"
         d="m 71.999998,71.880016 468.119992,0 0,648.119984 -468.119992,0 0,-648.119984 z" /></clipPath><clipPath
       id="clipPath4693"
       clipPathUnits="userSpaceOnUse"><path
         inkscape:connector-curvature="0"
         id="path4695"
         d="m 71.999998,71.880016 468.119992,0 0,648.119984 -468.119992,0 0,-648.119984 z" /></clipPath><clipPath
       id="clipPath4703"
       clipPathUnits="userSpaceOnUse"><path
         inkscape:connector-curvature="0"
         id="path4705"
         d="m 71.999998,71.880016 468.119992,0 0,648.119984 -468.119992,0 0,-648.119984 z" /></clipPath><clipPath
       id="clipPath4713"
       clipPathUnits="userSpaceOnUse"><path
         inkscape:connector-curvature="0"
         id="path4715"
         d="m 71.999998,71.880016 468.119992,0 0,648.119984 -468.119992,0 0,-648.119984 z" /></clipPath><clipPath
       id="clipPath4723"
       clipPathUnits="userSpaceOnUse"><path
         inkscape:connector-curvature="0"
         id="path4725"
         d="m 71.999998,71.880016 468.119992,0 0,648.119984 -468.119992,0 0,-648.119984 z" /></clipPath><clipPath
       id="clipPath4733"
       clipPathUnits="userSpaceOnUse"><path
         inkscape:connector-curvature="0"
         id="path4735"
         d="m 71.999998,71.880016 468.119992,0 0,648.119984 -468.119992,0 0,-648.119984 z" /></clipPath><clipPath
       id="clipPath4743"
       clipPathUnits="userSpaceOnUse"><path
         inkscape:connector-curvature="0"
         id="path4745"
         d="m 71.999998,71.880016 468.119992,0 0,648.119984 -468.119992,0 0,-648.119984 z" /></clipPath><clipPath
       id="clipPath4753"
       clipPathUnits="userSpaceOnUse"><path
         inkscape:connector-curvature="0"
         id="path4755"
         d="m 71.999998,71.880016 468.119992,0 0,648.119984 -468.119992,0 0,-648.119984 z" /></clipPath><filter
       style="color-interpolation-filters:sRGB"
       id="filter3038"
       inkscape:label="Invert"
       x="0"
       y="0"
       width="1"
       height="1"
       inkscape:menu="Color"
       inkscape:menu-tooltip="Invert colors"><feColorMatrix
         id="feColorMatrix3040"
         type="saturate"
         values="1"
         result="fbSourceGraphic" /><feColorMatrix
         id="feColorMatrix3042"
         in="fbSourceGraphic"
         values="-1 0 0 0 1 0 -1 0 0 1 0 0 -1 0 1 0 0 0 1 0 " /></filter><filter
       style="color-interpolation-filters:sRGB"
       id="filter3038-4"
       inkscape:label="Invert"
       x="0"
       y="0"
       width="1"
       height="1"
       inkscape:menu="Color"
       inkscape:menu-tooltip="Invert colors"><feColorMatrix
         id="feColorMatrix3040-4"
         type="saturate"
         values="1"
         result="fbSourceGraphic" /><feColorMatrix
         id="feColorMatrix3042-3"
         in="fbSourceGraphic"
         values="-1 0 0 0 1 0 -1 0 0 1 0 0 -1 0 1 0 0 0 1 0 " /></filter><clipPath
       id="clipPath4263-7"
       clipPathUnits="userSpaceOnUse"><path
         inkscape:connector-curvature="0"
         id="path4265-5"
         d="M 71.999998,71.880016 H 540.11999 V 720 H 71.999998 Z" /></clipPath><clipPath
       id="clipPath4273-8"
       clipPathUnits="userSpaceOnUse"><path
         inkscape:connector-curvature="0"
         id="path4275-7"
         d="M 71.999998,71.880016 H 540.11999 V 720 H 71.999998 Z" /></clipPath><clipPath
       id="clipPath4283-0"
       clipPathUnits="userSpaceOnUse"><path
         inkscape:connector-curvature="0"
         id="path4285-4"
         d="M 71.999998,71.880016 H 540.11999 V 720 H 71.999998 Z" /></clipPath><clipPath
       id="clipPath4293-8"
       clipPathUnits="userSpaceOnUse"><path
         inkscape:connector-curvature="0"
         id="path4295-0"
         d="M 71.999998,71.880016 H 540.11999 V 720 H 71.999998 Z" /></clipPath><clipPath
       id="clipPath4303-4"
       clipPathUnits="userSpaceOnUse"><path
         inkscape:connector-curvature="0"
         id="path4305-2"
         d="M 71.999998,71.880016 H 540.11999 V 720 H 71.999998 Z" /></clipPath><clipPath
       id="clipPath4313-9"
       clipPathUnits="userSpaceOnUse"><path
         inkscape:connector-curvature="0"
         id="path4315-6"
         d="M 71.999998,71.880016 H 540.11999 V 720 H 71.999998 Z" /></clipPath><clipPath
       id="clipPath4323-1"
       clipPathUnits="userSpaceOnUse"><path
         inkscape:connector-curvature="0"
         id="path4325-0"
         d="M 71.999998,71.880016 H 540.11999 V 720 H 71.999998 Z" /></clipPath><clipPath
       id="clipPath4333-4"
       clipPathUnits="userSpaceOnUse"><path
         inkscape:connector-curvature="0"
         id="path4335-2"
         d="M 71.999998,71.880016 H 540.11999 V 720 H 71.999998 Z" /></clipPath><clipPath
       id="clipPath4343-2"
       clipPathUnits="userSpaceOnUse"><path
         inkscape:connector-curvature="0"
         id="path4345-2"
         d="M 71.999998,71.880016 H 540.11999 V 720 H 71.999998 Z" /></clipPath><clipPath
       id="clipPath4353-0"
       clipPathUnits="userSpaceOnUse"><path
         inkscape:connector-curvature="0"
         id="path4355-5"
         d="M 71.999998,71.880016 H 540.11999 V 720 H 71.999998 Z" /></clipPath><clipPath
       id="clipPath4363-5"
       clipPathUnits="userSpaceOnUse"><path
         inkscape:connector-curvature="0"
         id="path4365-2"
         d="M 71.999998,71.880016 H 540.11999 V 720 H 71.999998 Z" /></clipPath><clipPath
       id="clipPath4373-9"
       clipPathUnits="userSpaceOnUse"><path
         inkscape:connector-curvature="0"
         id="path4375-0"
         d="M 71.999998,71.880016 H 540.11999 V 720 H 71.999998 Z" /></clipPath><clipPath
       id="clipPath4383-2"
       clipPathUnits="userSpaceOnUse"><path
         inkscape:connector-curvature="0"
         id="path4385-8"
         d="M 71.999998,71.880016 H 540.11999 V 720 H 71.999998 Z" /></clipPath><clipPath
       id="clipPath4393-3"
       clipPathUnits="userSpaceOnUse"><path
         inkscape:connector-curvature="0"
         id="path4395-8"
         d="M 71.999998,71.880016 H 540.11999 V 720 H 71.999998 Z" /></clipPath><clipPath
       id="clipPath4403-0"
       clipPathUnits="userSpaceOnUse"><path
         inkscape:connector-curvature="0"
         id="path4405-4"
         d="M 71.999998,71.880016 H 540.11999 V 720 H 71.999998 Z" /></clipPath><clipPath
       id="clipPath4413-0"
       clipPathUnits="userSpaceOnUse"><path
         inkscape:connector-curvature="0"
         id="path4415-9"
         d="M 71.999998,71.880016 H 540.11999 V 720 H 71.999998 Z" /></clipPath><clipPath
       id="clipPath4423-1"
       clipPathUnits="userSpaceOnUse"><path
         inkscape:connector-curvature="0"
         id="path4425-9"
         d="M 71.999998,71.880016 H 540.11999 V 720 H 71.999998 Z" /></clipPath><clipPath
       id="clipPath4433-6"
       clipPathUnits="userSpaceOnUse"><path
         inkscape:connector-curvature="0"
         id="path4435-2"
         d="M 71.999998,71.880016 H 540.11999 V 720 H 71.999998 Z" /></clipPath><clipPath
       id="clipPath4443-5"
       clipPathUnits="userSpaceOnUse"><path
         inkscape:connector-curvature="0"
         id="path4445-4"
         d="M 71.999998,71.880016 H 540.11999 V 720 H 71.999998 Z" /></clipPath><clipPath
       id="clipPath4453-4"
       clipPathUnits="userSpaceOnUse"><path
         inkscape:connector-curvature="0"
         id="path4455-9"
         d="M 71.999998,71.880016 H 540.11999 V 720 H 71.999998 Z" /></clipPath><clipPath
       id="clipPath4463-9"
       clipPathUnits="userSpaceOnUse"><path
         inkscape:connector-curvature="0"
         id="path4465-3"
         d="M 71.999998,71.880016 H 540.11999 V 720 H 71.999998 Z" /></clipPath><clipPath
       id="clipPath4473-6"
       clipPathUnits="userSpaceOnUse"><path
         inkscape:connector-curvature="0"
         id="path4475-0"
         d="M 71.999998,71.880016 H 540.11999 V 720 H 71.999998 Z" /></clipPath><clipPath
       id="clipPath4483-5"
       clipPathUnits="userSpaceOnUse"><path
         inkscape:connector-curvature="0"
         id="path4485-0"
         d="M 71.999998,71.880016 H 540.11999 V 720 H 71.999998 Z" /></clipPath><clipPath
       id="clipPath4493-2"
       clipPathUnits="userSpaceOnUse"><path
         inkscape:connector-curvature="0"
         id="path4495-9"
         d="M 71.999998,71.880016 H 540.11999 V 720 H 71.999998 Z" /></clipPath><clipPath
       id="clipPath4503-4"
       clipPathUnits="userSpaceOnUse"><path
         inkscape:connector-curvature="0"
         id="path4505-3"
         d="M 71.999998,71.880016 H 540.11999 V 720 H 71.999998 Z" /></clipPath><clipPath
       id="clipPath4513-5"
       clipPathUnits="userSpaceOnUse"><path
         inkscape:connector-curvature="0"
         id="path4515-1"
         d="M 71.999998,71.880016 H 540.11999 V 720 H 71.999998 Z" /></clipPath><clipPath
       id="clipPath4523-7"
       clipPathUnits="userSpaceOnUse"><path
         inkscape:connector-curvature="0"
         id="path4525-4"
         d="M 71.999998,71.880016 H 540.11999 V 720 H 71.999998 Z" /></clipPath><clipPath
       id="clipPath4533-3"
       clipPathUnits="userSpaceOnUse"><path
         inkscape:connector-curvature="0"
         id="path4535-1"
         d="M 71.999998,71.880016 H 540.11999 V 720 H 71.999998 Z" /></clipPath><clipPath
       id="clipPath4543-4"
       clipPathUnits="userSpaceOnUse"><path
         inkscape:connector-curvature="0"
         id="path4545-6"
         d="M 71.999998,71.880016 H 540.11999 V 720 H 71.999998 Z" /></clipPath><clipPath
       id="clipPath4553-9"
       clipPathUnits="userSpaceOnUse"><path
         inkscape:connector-curvature="0"
         id="path4555-4"
         d="M 71.999998,71.880016 H 540.11999 V 720 H 71.999998 Z" /></clipPath><clipPath
       id="clipPath4563-2"
       clipPathUnits="userSpaceOnUse"><path
         inkscape:connector-curvature="0"
         id="path4565-2"
         d="M 71.999998,71.880016 H 540.11999 V 720 H 71.999998 Z" /></clipPath><clipPath
       id="clipPath4573-6"
       clipPathUnits="userSpaceOnUse"><path
         inkscape:connector-curvature="0"
         id="path4575-4"
         d="M 71.999998,71.880016 H 540.11999 V 720 H 71.999998 Z" /></clipPath><clipPath
       id="clipPath4583-1"
       clipPathUnits="userSpaceOnUse"><path
         inkscape:connector-curvature="0"
         id="path4585-2"
         d="M 71.999998,71.880016 H 540.11999 V 720 H 71.999998 Z" /></clipPath><clipPath
       id="clipPath4593-8"
       clipPathUnits="userSpaceOnUse"><path
         inkscape:connector-curvature="0"
         id="path4595-8"
         d="M 71.999998,71.880016 H 540.11999 V 720 H 71.999998 Z" /></clipPath><clipPath
       id="clipPath4603-9"
       clipPathUnits="userSpaceOnUse"><path
         inkscape:connector-curvature="0"
         id="path4605-28"
         d="M 71.999998,71.880016 H 540.11999 V 720 H 71.999998 Z" /></clipPath><clipPath
       id="clipPath4613-8"
       clipPathUnits="userSpaceOnUse"><path
         inkscape:connector-curvature="0"
         id="path4615-8"
         d="M 71.999998,71.880016 H 540.11999 V 720 H 71.999998 Z" /></clipPath><clipPath
       id="clipPath4623-6"
       clipPathUnits="userSpaceOnUse"><path
         inkscape:connector-curvature="0"
         id="path4625-8"
         d="M 71.999998,71.880016 H 540.11999 V 720 H 71.999998 Z" /></clipPath><clipPath
       id="clipPath4633-3"
       clipPathUnits="userSpaceOnUse"><path
         inkscape:connector-curvature="0"
         id="path4635-8"
         d="M 71.999998,71.880016 H 540.11999 V 720 H 71.999998 Z" /></clipPath><clipPath
       id="clipPath4643-3"
       clipPathUnits="userSpaceOnUse"><path
         inkscape:connector-curvature="0"
         id="path4645-3"
         d="M 71.999998,71.880016 H 540.11999 V 720 H 71.999998 Z" /></clipPath><clipPath
       id="clipPath4653-3"
       clipPathUnits="userSpaceOnUse"><path
         inkscape:connector-curvature="0"
         id="path4655-8"
         d="M 71.999998,71.880016 H 540.11999 V 720 H 71.999998 Z" /></clipPath><clipPath
       id="clipPath4663-0"
       clipPathUnits="userSpaceOnUse"><path
         inkscape:connector-curvature="0"
         id="path4665-4"
         d="M 71.999998,71.880016 H 540.11999 V 720 H 71.999998 Z" /></clipPath><clipPath
       id="clipPath4673-7"
       clipPathUnits="userSpaceOnUse"><path
         inkscape:connector-curvature="0"
         id="path4675-6"
         d="M 71.999998,71.880016 H 540.11999 V 720 H 71.999998 Z" /></clipPath><clipPath
       id="clipPath4683-8"
       clipPathUnits="userSpaceOnUse"><path
         inkscape:connector-curvature="0"
         id="path4685-9"
         d="M 71.999998,71.880016 H 540.11999 V 720 H 71.999998 Z" /></clipPath><clipPath
       id="clipPath4693-0"
       clipPathUnits="userSpaceOnUse"><path
         inkscape:connector-curvature="0"
         id="path4695-6"
         d="M 71.999998,71.880016 H 540.11999 V 720 H 71.999998 Z" /></clipPath><clipPath
       id="clipPath4703-8"
       clipPathUnits="userSpaceOnUse"><path
         inkscape:connector-curvature="0"
         id="path4705-7"
         d="M 71.999998,71.880016 H 540.11999 V 720 H 71.999998 Z" /></clipPath><clipPath
       id="clipPath4713-9"
       clipPathUnits="userSpaceOnUse"><path
         inkscape:connector-curvature="0"
         id="path4715-0"
         d="M 71.999998,71.880016 H 540.11999 V 720 H 71.999998 Z" /></clipPath><clipPath
       id="clipPath4723-3"
       clipPathUnits="userSpaceOnUse"><path
         inkscape:connector-curvature="0"
         id="path4725-3"
         d="M 71.999998,71.880016 H 540.11999 V 720 H 71.999998 Z" /></clipPath><clipPath
       id="clipPath4733-3"
       clipPathUnits="userSpaceOnUse"><path
         inkscape:connector-curvature="0"
         id="path4735-7"
         d="M 71.999998,71.880016 H 540.11999 V 720 H 71.999998 Z" /></clipPath><clipPath
       id="clipPath4743-3"
       clipPathUnits="userSpaceOnUse"><path
         inkscape:connector-curvature="0"
         id="path4745-2"
         d="M 71.999998,71.880016 H 540.11999 V 720 H 71.999998 Z" /></clipPath><clipPath
       id="clipPath4753-6"
       clipPathUnits="userSpaceOnUse"><path
         inkscape:connector-curvature="0"
         id="path4755-5"
         d="M 71.999998,71.880016 H 540.11999 V 720 H 71.999998 Z" /></clipPath></defs><sodipodi:namedview
     pagecolor="#ffffff"
     bordercolor="#666666"
     borderopacity="1"
     objecttolerance="10"
     gridtolerance="10"
     guidetolerance="10"
     inkscape:pageopacity="0"
     inkscape:pageshadow="2"
     inkscape:window-width="1366"
     inkscape:window-height="708"
     id="namedview4"
     showgrid="false"
     inkscape:zoom="0.76406976"
     inkscape:cx="261.18955"
     inkscape:cy="335.09385"
     inkscape:current-layer="g10"
     units="mm"
     width="115mm"
     inkscape:window-x="0"
     inkscape:window-y="31"
     inkscape:window-maximized="1"
     showguides="true" /><g
     id="g10"
     inkscape:groupmode="layer"
     inkscape:label="Designvorschlag_deckseite"
     transform="matrix(1.25,0,0,-1.25,0,595.27551)"><g
       id="g12" /><g
       id="g84"
       transform="matrix(0.50000022,0,0,0.50000022,33.407389,28.886477)"><text
   transform="matrix(1,0,0,-1,126.0675,589.95752)"
   style="font-variant:normal;font-weight:normal;line-height:0%;font-family:'DejaVu Sans';-inkscape-font-specification:DejaVuSansCondensed;writing-mode:lr-tb;fill:#000000;fill-opacity:1;fill-rule:nonzero;stroke:none"
   id="text86"><tspan
     x="0"
     sodipodi:role="line"
     id="tspan88"
     y="0"
     style="font-style:normal;font-variant:normal;font-weight:normal;font-stretch:normal;font-size:22.43999863px;line-height:1.25;font-family:'Source Sans Pro';-inkscape-font-specification:'Source Sans Pro'">13. bis 16. März 2019 in Dresden</tspan></text>

</g><g
       id="g90" /><g
       id="g4247"
       transform="matrix(0,-0.44318768,0.44318768,0,-31.356942,349.70096)" /><g
       id="g4759"
       transform="matrix(0,-0.44318768,0.44318768,0,-31.356942,349.70096)" /><path
       inkscape:connector-curvature="0"
       d="m 28.346432,477.63731 0,-14.17321"
       id="path4591"
       style="fill:none;stroke:#000000;stroke-width:0.7999993px;stroke-linecap:butt;stroke-linejoin:miter;stroke-opacity:1" /><path
       inkscape:connector-curvature="0"
       d="M 4.5155517e-7,449.29088 14.173216,449.29088"
       id="path4593"
       style="fill:none;stroke:#000000;stroke-width:0.7999993px;stroke-linecap:butt;stroke-linejoin:miter;stroke-opacity:1" /><path
       inkscape:connector-curvature="0"
       d="m 325.98396,477.63731 0,-14.17321"
       id="path4595-2"
       style="fill:none;stroke:#000000;stroke-width:0.7999993px;stroke-linecap:butt;stroke-linejoin:miter;stroke-opacity:1" /><path
       inkscape:connector-curvature="0"
       d="m 354.3304,449.29088 -14.17322,0"
       id="path4597-5"
       style="fill:none;stroke:#000000;stroke-width:0.7999993px;stroke-linecap:butt;stroke-linejoin:miter;stroke-opacity:1" /><path
       inkscape:connector-curvature="0"
       d="m 325.98396,-5.809646e-5 0,14.17321109646"
       id="path4601"
       style="fill:none;stroke:#000000;stroke-width:0.7999993px;stroke-linecap:butt;stroke-linejoin:miter;stroke-opacity:1" /><path
       inkscape:connector-curvature="0"
       d="m 340.15718,28.346389 14.17322,-1.6e-5"
       id="path4603"
       style="fill:none;stroke:#000000;stroke-width:0.7999993px;stroke-linecap:butt;stroke-linejoin:miter;stroke-opacity:1" /><path
       inkscape:connector-curvature="0"
       d="m 28.346432,14.173169 0,-14.17322709646"
       id="path4605-2"
       style="fill:none;stroke:#000000;stroke-width:0.7999993px;stroke-linecap:butt;stroke-linejoin:miter;stroke-opacity:1" /><path
       inkscape:connector-curvature="0"
       d="M 14.173216,28.346389 4.5155517e-7,28.346373"
       id="path4607-3"
       style="fill:none;stroke:#000000;stroke-width:0.7999993px;stroke-linecap:butt;stroke-linejoin:miter;stroke-opacity:1" /><g
       style="visibility:visible"
       id="g51"
       transform="matrix(0.00410639,0,0,-0.00410639,52.362939,433.33594)"><g
         id="g53"
         style="fill:#ee7f00;stroke:none"><path
           inkscape:connector-curvature="0"
           id="path55"
           d="M 8500,16000 H 1000 V 1000 h 15000 v 15000 z" /></g><g
         id="g57"
         style="fill:none;stroke:none"><rect
           id="rect59"
           height="15001"
           width="15001"
           y="1000"
           x="1000" /></g></g><g
       style="visibility:visible"
       id="g63"
       transform="matrix(0.00410639,0,0,-0.00410639,52.362939,433.33594)"><g
         id="g65"
         style="fill:#ffffff;stroke:none"><path
           inkscape:connector-curvature="0"
           id="path67"
           d="M 6500,9250 H 1750 V 1750 h 9500 v 7500 z" /></g><g
         id="g69"
         style="fill:none;stroke:none"><rect
           id="rect71"
           height="7501"
           width="9501"
           y="1750"
           x="1750" /></g></g><g
       style="visibility:visible"
       id="g75"
       transform="matrix(0.00410639,0,0,-0.00410639,52.362939,433.33594)"><g
         id="g77"
         style="fill:none;stroke:none"><rect
           id="rect79"
           height="4354"
           width="9100"
           y="3569"
           x="1947" /></g><g
         id="g81"
         style="font-weight:700;font-size:3528px;font-family:'Droid Sans embedded'"><g
           id="g83"
           style="fill:#ee7f00;stroke:none"><text
   y="6820.3677"
   x="2394.9783"
   style="font-size:3821.18530273px;line-height:0%;stroke-width:1.08310246"
   id="text85"><tspan
     style="font-style:normal;font-variant:normal;font-weight:bold;font-stretch:normal;font-family:'Droid Sans';-inkscape-font-specification:'Droid Sans Bold';stroke-width:1.08310246"
     id="tspan87">2019</tspan></text>

</g></g></g><g
       style="visibility:visible"
       id="g91"
       transform="matrix(0.00410639,0,0,-0.00410639,52.362939,433.33594)"><g
         id="g93"
         style="fill:none;stroke:none"><rect
           id="rect95"
           height="5836"
           width="14837"
           y="10650"
           x="1113" /></g><g
         id="g97"
         style="font-weight:700;font-size:4798px;font-family:'Droid Sans embedded'"><g
           id="g99"
           style="fill:#ffffff;stroke:none"><text
   style="line-height:0%"
   id="text101"><tspan
     x="1363 4707 9313 12505"
     y="15228"
     id="tspan103">FOSS</tspan></text>

</g></g></g><g
       style="visibility:visible"
       id="g107"
       transform="matrix(0.00410639,0,0,-0.00410639,52.362939,433.33594)"><g
         id="g109"
         style="fill:none;stroke:none"><rect
           id="rect111"
           height="5836"
           width="3974"
           y="794"
           x="11597" /></g><g
         id="g113"
         style="font-weight:700;font-size:4798px;font-family:'Droid Sans embedded'"><g
           id="g115"
           style="fill:#ffffff;stroke:none"><text
   style="line-height:0%"
   id="text117"><tspan
     id="tspan119"
     y="5372"
     x="11847">G</tspan></text>

</g></g></g><g
       style="visibility:visible"
       id="g123"
       transform="matrix(0.00410639,0,0,-0.00410639,52.362939,433.33594)"><g
         id="g125"
         style="fill:none;stroke:none"><rect
           id="rect127"
           height="5836"
           width="3003"
           y="5672"
           x="12842" /></g><g
         id="g129"
         style="font-weight:700;font-size:4798px;font-family:'Droid Sans embedded'"><g
           id="g131"
           style="fill:#ffffff;stroke:none"><text
   style="line-height:0%"
   id="text133"><tspan
     id="tspan135"
     y="10250"
     x="13092">I</tspan></text>

</g></g></g></g></svg>